Coordinates
version=1
nRows=7
nColumns=38
inDegrees=yes

Units are S.I. units (second, meters, Newtons, ...)
If the header above contains a line with 'inDegrees', this indicates whether rotational values are in degrees (yes) or radians (no).

endheader
time	pelvis_tilt	pelvis_list	pelvis_rotation	pelvis_tx	pelvis_ty	pelvis_tz	hip_flexion_r	hip_adduction_r	hip_rotation_r	knee_angle_r	knee_angle_r_beta	ankle_angle_r	subtalar_angle_r	mtp_angle_r	hip_flexion_l	hip_adduction_l	hip_rotation_l	knee_angle_l	knee_angle_l_beta	ankle_angle_l	subtalar_angle_l	mtp_angle_l	lumbar_extension	lumbar_bending	lumbar_rotation	arm_flex_r	arm_add_r	arm_rot_r	elbow_flex_r	pro_sup_r	radius_hand_r_lock	arm_flex_l	arm_add_l	arm_rot_l	elbow_flex_l	pro_sup_l	radius_hand_l_lock
      7.99166667	    -89.77938540	      4.44116304	   -180.18007705	      0.97243660	      0.54330974	     -0.59758024	     11.65483801	     -3.93298830	    -12.08056631	     32.12292149	      0.56065075	      2.74629535	     -0.37761140	     -7.49999987	      9.78160704	    -15.25552754	    -17.20759913	     35.80203393	      0.62486337	     14.38337216	     10.66869348	     -7.49999987	     -8.09146558	      5.33896297	      4.99005082	     39.07011499	     -8.71527763	     -2.88054073	     52.61828187	    100.70857632	      0.00000000	     33.96196240	     -9.21296990	      2.48943409	     58.67677844	    107.54760891	      0.00000000
      8.00000000	    -89.77835411	      4.29117909	   -180.04558102	      0.97196784	      0.54294816	     -0.59734566	     11.68231214	     -4.20286151	    -12.39895492	     32.22945946	      0.56251018	      2.90806011	     -0.22939813	     -7.49999987	      9.85849628	    -14.98484271	    -16.83319865	     35.78338146	      0.62453782	     14.46390745	     10.52066037	     -7.49999987	     -8.06236083	      5.14904001	      4.79469782	     38.90951399	     -8.65756720	     -3.00968701	     52.51632752	    102.56964025	      0.00000000	     33.92190340	     -9.29053561	      2.58818763	     58.56150862	    108.49912409	      0.00000000
      8.00833333	    -89.78723446	      3.34282200	   -179.74703512	      0.97140248	      0.54278075	     -0.59608531	     11.75031718	     -5.60484607	    -13.03124948	     32.60277222	      0.56902572	      3.53262088	      0.60209864	     -7.49999987	      9.75310525	    -13.53709633	    -16.21279266	     35.38890262	      0.61765287	     14.44263548	      9.86140790	     -7.49999987	     -7.99757126	      4.06059727	      4.37232411	     38.60012088	     -8.60342612	     -2.43286390	     52.72784733	     96.36833897	      0.00000000	     33.90865145	     -9.56443380	      3.56223883	     58.63213788	    101.85148967	      0.00000000
      8.01666667	    -89.77841683	      4.64603133	   -180.01722359	      0.97065659	      0.54244814	     -0.59720860	     11.46724860	     -3.67486097	    -12.28612871	     31.89903175	      0.55674313	      3.25642387	     -0.48098330	     -7.49999987	      9.94113965	    -15.29471331	    -16.47883704	     35.89203260	      0.62643414	     15.00084022	     10.45967065	     -7.49999987	     -7.97287840	      5.62597376	      4.67532152	     38.57187103	     -8.61753941	     -2.55883290	     52.46768440	    101.98381405	      0.00000000	     33.54257239	     -9.21152780	      2.65923469	     58.30761705	    108.95518255	      0.00000000
      8.02500000	    -89.78292673	      3.89923989	   -180.35254997	      0.96999087	      0.54218825	     -0.59712506	     11.64251426	     -4.64022607	    -11.97349107	     32.24862661	      0.56284471	      3.81850788	      0.12886864	     -7.49999987	      9.60519875	    -14.21412230	    -16.54330067	     35.46943095	      0.61905835	     15.06981351	      9.89519366	     -7.49999987	     -7.95308520	      4.77949705	      4.91000046	     38.31245868	     -8.55925796	     -2.55390849	     52.38825954	    100.51989428	      0.00000000	     33.44515341	     -9.21686666	      3.04770810	     58.10996271	    107.54457040	      0.00000000
      8.03333333	    -89.78116064	      4.96327182	   -180.33813812	      0.96917906	      0.54203180	     -0.59751615	     11.31312869	     -3.18324604	    -11.75116565	     31.62835273	      0.55201889	      3.71160969	     -0.51946174	     -7.49999987	      9.77591627	    -15.65549161	    -16.64944298	     35.89862588	      0.62654922	     15.70825782	     10.71504360	     -7.49999987	     -7.93073148	      6.08656332	      4.90558451	     38.24868659	     -8.65870163	     -2.46068859	     52.16979369	    102.80045301	      0.00000000	     33.09003080	     -9.08125152	      2.96228098	     57.87981770	    108.47043760	      0.00000000
      8.04166667	    -89.78308840	      4.85819986	   -180.40847074	      0.96817335	      0.54169291	     -0.59748172	     11.29465791	     -3.32469503	    -11.87662854	     31.65783855	      0.55253352	      4.14786556	     -0.31275244	     -7.49999987	      9.68915287	    -15.48483963	    -16.65212496	     35.83037392	      0.62535800	     16.01907351	     10.57169335	     -7.49999987	     -7.92856648	      5.97691096	      4.89536493	     38.11455412	     -8.75728506	     -2.30562046	     51.90882390	    102.59041853	      0.00000000	     32.91031114	     -9.10155397	      3.01910736	     57.60370820	    108.65258342	      0.00000000
